<?xml version="1.0" encoding="utf-8"?>
<svg width="471" height="469" viewBox="0 0 471 469" fill="none" stroke="none" version="1.1" xmlns:xlink="http://www.w3.org/1999/xlink" xmlns="http://www.w3.org/2000/svg">
  <defs>
    <linearGradient id="gradient_1" gradientUnits="userSpaceOnUse" x1="235.5" y1="0" x2="235.5" y2="469">
      <stop offset="0" stop-color="#A445B2" />
      <stop offset="0.5" stop-color="#D41872" />
      <stop offset="1" stop-color="#FF0066" />
    </linearGradient>
    <linearGradient id="gradient_2" gradientUnits="userSpaceOnUse" x1="235.5" y1="0" x2="235.5" y2="469">
      <stop offset="0" stop-color="#FFFFFF" />
      <stop offset="1" stop-color="#808080" />
    </linearGradient>
  </defs>
  <g id="Network" opacity="1">
    <path d="M471 0L471 0L471 469L0 469L0 0L471 0Z" style="mix-blend-mode:normal;" />
    <g style="fill:url(#gradient_1);mix-blend-mode:normal;">
      <path id="Path" d="M419.618 0C391.281 0 368.236 22.9469 368.236 51.1636C368.236 59.9894 370.489 68.2949 374.454 75.5516C374.454 75.5516 290.282 159.366 290.282 159.366C278.678 150.37 264.154 144.964 248.345 144.964C232.537 144.964 218.013 150.37 206.401 159.358C206.401 159.358 140.726 93.962 140.726 93.962C143.741 88.8883 145.582 83.0556 145.582 76.7455C145.582 57.9343 130.219 42.6364 111.327 42.6364C92.4359 42.6364 77.0727 57.9343 77.0727 76.7455C77.0727 95.5566 92.4359 110.855 111.327 110.855C117.664 110.855 123.522 109.021 128.617 106.02C128.617 106.02 194.292 171.415 194.292 171.415C185.266 182.978 179.836 197.44 179.836 213.182C179.836 228.923 185.266 243.385 194.292 254.94C194.292 254.94 85.8419 362.938 85.8419 362.938C76.7131 354.692 64.6469 349.618 51.3818 349.618C23.0447 349.618 0 372.565 0 400.782C0 428.999 23.0447 451.945 51.3818 451.945C79.7189 451.945 102.764 428.999 102.764 400.782C102.764 391.956 100.511 383.651 96.5464 376.394C96.5464 376.394 206.409 266.997 206.409 266.997C215.881 274.331 227.305 279.243 239.79 280.803C239.79 280.803 239.79 367.44 239.79 367.44C215.53 371.516 196.972 392.527 196.972 417.836C196.972 446.053 220.017 469 248.354 469C276.691 469 299.736 446.053 299.736 417.836C299.736 392.536 281.178 371.525 256.918 367.44C256.918 367.44 256.918 280.803 256.918 280.803C269.403 279.243 280.827 274.331 290.299 266.997C290.299 266.997 355.973 332.393 355.973 332.393C352.95 337.475 351.109 343.308 351.109 349.618C351.109 368.429 366.472 383.727 385.364 383.727C404.255 383.727 419.618 368.429 419.618 349.618C419.618 330.807 404.255 315.509 385.364 315.509C379.027 315.509 373.169 317.342 368.074 320.344C368.074 320.344 302.399 254.948 302.399 254.948C311.425 243.385 316.855 228.923 316.855 213.182C316.855 197.44 311.425 182.978 302.399 171.424C302.399 171.424 385.167 89.0077 385.167 89.0077C394.287 97.2535 406.353 102.327 419.618 102.327C447.955 102.327 471 79.3804 471 51.1636C471 22.9469 447.955 0 419.618 0C419.618 0 419.618 0 419.618 0Z" />
      <path d="M385.167 89.0077C394.287 97.2535 406.353 102.327 419.618 102.327C447.955 102.327 471 79.3804 471 51.1636C471 22.9469 447.955 0 419.618 0C391.281 0 368.236 22.9469 368.236 51.1636C368.236 59.9894 370.489 68.2949 374.454 75.5516L290.282 159.366C278.678 150.37 264.154 144.964 248.345 144.964C232.537 144.964 218.013 150.37 206.401 159.358L140.726 93.962C143.741 88.8883 145.582 83.0556 145.582 76.7455C145.582 57.9343 130.219 42.6364 111.327 42.6364C92.4359 42.6364 77.0727 57.9343 77.0727 76.7455C77.0727 95.5566 92.4359 110.855 111.327 110.855C117.664 110.855 123.522 109.021 128.617 106.02L194.292 171.415C185.266 182.978 179.836 197.44 179.836 213.182C179.836 228.923 185.266 243.385 194.292 254.94L85.8419 362.938C76.7131 354.692 64.6469 349.618 51.3818 349.618C23.0447 349.618 0 372.565 0 400.782C0 428.999 23.0447 451.945 51.3818 451.945C79.7189 451.945 102.764 428.999 102.764 400.782C102.764 391.956 100.511 383.651 96.5464 376.394L206.409 266.997C215.881 274.331 227.305 279.243 239.79 280.803L239.79 367.44C215.53 371.516 196.972 392.527 196.972 417.836C196.972 446.053 220.017 469 248.354 469C276.691 469 299.736 446.053 299.736 417.836C299.736 392.536 281.178 371.525 256.918 367.44L256.918 280.803C269.403 279.243 280.827 274.331 290.299 266.997L355.973 332.393C352.95 337.475 351.109 343.308 351.109 349.618C351.109 368.429 366.472 383.727 385.364 383.727C404.255 383.727 419.618 368.429 419.618 349.618C419.618 330.807 404.255 315.509 385.364 315.509C379.027 315.509 373.169 317.342 368.074 320.344L302.399 254.948C311.425 243.385 316.855 228.923 316.855 213.182C316.855 197.44 311.425 182.978 302.399 171.424L385.167 89.0077ZM385.418 17.1264Q399.604 3 419.618 3Q439.632 3 453.819 17.1264Q468 31.2475 468 51.1636Q468 71.0798 453.819 85.2009Q439.632 99.3273 419.618 99.3273Q401.054 99.3272 387.179 86.7824L385.067 84.8732L298.398 171.175L300.035 173.271Q313.855 190.961 313.855 213.182Q313.854 235.398 300.034 253.102L298.398 255.198L367.599 324.105L369.596 322.929Q377.099 318.509 385.364 318.509Q398.293 318.509 407.458 327.635Q416.618 336.756 416.618 349.618Q416.618 362.48 407.458 371.601Q398.293 380.727 385.364 380.727Q372.434 380.727 363.269 371.601Q354.109 362.48 354.109 349.618Q354.109 341.396 358.552 333.927L359.747 331.917L290.547 263.011L288.462 264.625Q274.274 275.611 256.546 277.826L253.918 278.155L253.918 369.977L256.42 370.399Q273.691 373.306 285.149 386.638Q296.736 400.118 296.736 417.836Q296.736 437.752 282.555 451.874Q268.368 466 248.354 466Q228.34 466 214.154 451.874Q199.972 437.752 199.972 417.836Q199.972 400.112 211.559 386.631Q223.017 373.3 240.287 370.399L242.79 369.978L242.79 278.155L240.162 277.826Q222.433 275.61 208.246 264.625L206.161 263.011L92.8343 375.857L93.9138 377.832Q99.7636 388.539 99.7636 400.782Q99.7636 420.698 85.5823 434.819Q71.3956 448.945 51.3818 448.945Q31.368 448.946 17.1813 434.819Q3 420.698 3 400.782Q3 380.865 17.1813 366.745Q31.368 352.618 51.3818 352.618Q69.9418 352.618 83.831 365.164L85.9425 367.071L198.293 255.189L196.656 253.093Q182.836 235.402 182.836 213.182Q182.836 190.966 196.657 173.261L198.293 171.165L129.092 102.258L127.095 103.435Q119.592 107.855 111.327 107.855Q98.3976 107.855 89.2325 98.7284Q80.0727 89.6075 80.0727 76.7455Q80.0727 63.8835 89.2325 54.7625Q98.3976 45.6364 111.327 45.6364Q124.257 45.6364 133.422 54.7625Q142.582 63.8835 142.582 76.7455Q142.582 84.9653 138.147 92.4297L136.953 94.4388L206.152 163.344L208.237 161.73Q226.023 147.964 248.345 147.964Q270.678 147.964 288.443 161.737L290.529 163.354L378.166 76.0889L377.086 74.1132Q371.236 63.4067 371.236 51.1636Q371.236 31.2475 385.418 17.1264Z" fill-rule="evenodd" style="fill:url(#gradient_2);" />
    </g>
  </g>
</svg>